<?xml version="1.0" encoding="UTF-8" standalone="no"?>
<!DOCTYPE svg PUBLIC "-//W3C//DTD SVG 1.1//EN"
 "http://www.w3.org/Graphics/SVG/1.1/DTD/svg11.dtd">
<!-- Generated by graphviz version 3.0.0 (20220226.1711)
 -->
<!-- Title: dependencies Pages: 1 -->
<svg width="987pt" height="174pt"
 viewBox="0.00 0.00 987.00 173.80" xmlns="http://www.w3.org/2000/svg" xmlns:xlink="http://www.w3.org/1999/xlink">
<g id="graph0" class="graph" transform="scale(1 1) rotate(0) translate(4 169.8)">
<title>dependencies</title>
<polygon fill="white" stroke="transparent" points="-4,4 -4,-169.8 983,-169.8 983,4 -4,4"/>
<text text-anchor="middle" x="489.5" y="-8.2" font-family="sans-serif" font-size="14.00">dependencies</text>
<g id="clust1" class="cluster">
<title>cluster_AppModule</title>
<polygon fill="none" stroke="black" stroke-dasharray="1,5" points="8,-32.8 8,-157.8 971,-157.8 971,-32.8 8,-32.8"/>
</g>
<g id="clust3" class="cluster">
<title>cluster_AppModule_imports</title>
<polygon fill="none" stroke="black" points="154,-40.8 154,-92.8 963,-92.8 963,-40.8 154,-40.8"/>
</g>
<g id="clust6" class="cluster">
<title>cluster_AppModule_providers</title>
<polygon fill="none" stroke="black" points="16,-40.8 16,-92.8 146,-92.8 146,-40.8 16,-40.8"/>
</g>
<!-- AuthModule -->
<g id="node1" class="node">
<title>AuthModule</title>
<polygon fill="#8dd3c7" stroke="black" points="954.55,-84.8 951.55,-88.8 930.55,-88.8 927.55,-84.8 867.45,-84.8 867.45,-48.8 954.55,-48.8 954.55,-84.8"/>
<text text-anchor="middle" x="911" y="-62.6" font-family="Times,serif" font-size="14.00">AuthModule</text>
</g>
<!-- AppModule -->
<g id="node8" class="node">
<title>AppModule</title>
<polygon fill="#8dd3c7" stroke="black" points="536.66,-149.8 533.66,-153.8 512.66,-153.8 509.66,-149.8 453.34,-149.8 453.34,-113.8 536.66,-113.8 536.66,-149.8"/>
<text text-anchor="middle" x="495" y="-127.6" font-family="Times,serif" font-size="14.00">AppModule</text>
</g>
<!-- AuthModule&#45;&gt;AppModule -->
<g id="edge1" class="edge">
<title>AuthModule&#45;&gt;AppModule</title>
<path fill="none" stroke="black" d="M911,-85.09C911,-107.01 911,-140.8 911,-140.8 911,-140.8 546.79,-140.8 546.79,-140.8"/>
<polygon fill="black" stroke="black" points="546.79,-137.3 536.79,-140.8 546.79,-144.3 546.79,-137.3"/>
</g>
<!-- GameModule -->
<g id="node2" class="node">
<title>GameModule</title>
<polygon fill="#8dd3c7" stroke="black" points="849.48,-84.8 846.48,-88.8 825.48,-88.8 822.48,-84.8 756.52,-84.8 756.52,-48.8 849.48,-48.8 849.48,-84.8"/>
<text text-anchor="middle" x="803" y="-62.6" font-family="Times,serif" font-size="14.00">GameModule</text>
</g>
<!-- GameModule&#45;&gt;AppModule -->
<g id="edge2" class="edge">
<title>GameModule&#45;&gt;AppModule</title>
<path fill="none" stroke="black" d="M803,-84.91C803,-104.14 803,-131.8 803,-131.8 803,-131.8 546.86,-131.8 546.86,-131.8"/>
<polygon fill="black" stroke="black" points="546.86,-128.3 536.86,-131.8 546.86,-135.3 546.86,-128.3"/>
</g>
<!-- GenderModule -->
<g id="node3" class="node">
<title>GenderModule</title>
<polygon fill="#8dd3c7" stroke="black" points="738.25,-84.8 735.25,-88.8 714.25,-88.8 711.25,-84.8 637.75,-84.8 637.75,-48.8 738.25,-48.8 738.25,-84.8"/>
<text text-anchor="middle" x="688" y="-62.6" font-family="Times,serif" font-size="14.00">GenderModule</text>
</g>
<!-- GenderModule&#45;&gt;AppModule -->
<g id="edge3" class="edge">
<title>GenderModule&#45;&gt;AppModule</title>
<path fill="none" stroke="black" d="M688,-84.83C688,-101.2 688,-122.8 688,-122.8 688,-122.8 546.88,-122.8 546.88,-122.8"/>
<polygon fill="black" stroke="black" points="546.88,-119.3 536.88,-122.8 546.88,-126.3 546.88,-119.3"/>
</g>
<!-- HomePageModule -->
<g id="node4" class="node">
<title>HomePageModule</title>
<polygon fill="#8dd3c7" stroke="black" points="619.48,-84.8 616.48,-88.8 595.48,-88.8 592.48,-84.8 498.52,-84.8 498.52,-48.8 619.48,-48.8 619.48,-84.8"/>
<text text-anchor="middle" x="559" y="-62.6" font-family="Times,serif" font-size="14.00">HomePageModule</text>
</g>
<!-- HomePageModule&#45;&gt;AppModule -->
<g id="edge4" class="edge">
<title>HomePageModule&#45;&gt;AppModule</title>
<path fill="none" stroke="black" d="M517.67,-84.91C517.67,-84.91 517.67,-103.79 517.67,-103.79"/>
<polygon fill="black" stroke="black" points="514.17,-103.79 517.67,-113.79 521.17,-103.79 514.17,-103.79"/>
</g>
<!-- PrismaModule -->
<g id="node5" class="node">
<title>PrismaModule</title>
<polygon fill="#8dd3c7" stroke="black" points="480.44,-84.8 477.44,-88.8 456.44,-88.8 453.44,-84.8 381.56,-84.8 381.56,-48.8 480.44,-48.8 480.44,-84.8"/>
<text text-anchor="middle" x="431" y="-62.6" font-family="Times,serif" font-size="14.00">PrismaModule</text>
</g>
<!-- PrismaModule&#45;&gt;AppModule -->
<g id="edge5" class="edge">
<title>PrismaModule&#45;&gt;AppModule</title>
<path fill="none" stroke="black" d="M466.69,-84.91C466.69,-84.91 466.69,-103.79 466.69,-103.79"/>
<polygon fill="black" stroke="black" points="463.19,-103.79 466.69,-113.79 470.19,-103.79 463.19,-103.79"/>
</g>
<!-- ProfileModule -->
<g id="node6" class="node">
<title>ProfileModule</title>
<polygon fill="#8dd3c7" stroke="black" points="363.66,-84.8 360.66,-88.8 339.66,-88.8 336.66,-84.8 266.34,-84.8 266.34,-48.8 363.66,-48.8 363.66,-84.8"/>
<text text-anchor="middle" x="315" y="-62.6" font-family="Times,serif" font-size="14.00">ProfileModule</text>
</g>
<!-- ProfileModule&#45;&gt;AppModule -->
<g id="edge6" class="edge">
<title>ProfileModule&#45;&gt;AppModule</title>
<path fill="none" stroke="black" d="M315,-84.83C315,-101.2 315,-122.8 315,-122.8 315,-122.8 443.25,-122.8 443.25,-122.8"/>
<polygon fill="black" stroke="black" points="443.25,-126.3 453.25,-122.8 443.25,-119.3 443.25,-126.3"/>
</g>
<!-- UserModule -->
<g id="node7" class="node">
<title>UserModule</title>
<polygon fill="#8dd3c7" stroke="black" points="247.99,-84.8 244.99,-88.8 223.99,-88.8 220.99,-84.8 162.01,-84.8 162.01,-48.8 247.99,-48.8 247.99,-84.8"/>
<text text-anchor="middle" x="205" y="-62.6" font-family="Times,serif" font-size="14.00">UserModule</text>
</g>
<!-- UserModule&#45;&gt;AppModule -->
<g id="edge7" class="edge">
<title>UserModule&#45;&gt;AppModule</title>
<path fill="none" stroke="black" d="M205,-84.91C205,-104.14 205,-131.8 205,-131.8 205,-131.8 443.14,-131.8 443.14,-131.8"/>
<polygon fill="black" stroke="black" points="443.14,-135.3 453.14,-131.8 443.14,-128.3 443.14,-135.3"/>
</g>
<!-- AppService -->
<g id="node9" class="node">
<title>AppService</title>
<ellipse fill="#fdb462" stroke="black" cx="81" cy="-66.8" rx="56.75" ry="18"/>
<text text-anchor="middle" x="81" y="-62.6" font-family="Times,serif" font-size="14.00">AppService</text>
</g>
<!-- AppService&#45;&gt;AppModule -->
<g id="edge8" class="edge">
<title>AppService&#45;&gt;AppModule</title>
<path fill="none" stroke="black" d="M81,-85.09C81,-107.01 81,-140.8 81,-140.8 81,-140.8 443.03,-140.8 443.03,-140.8"/>
<polygon fill="black" stroke="black" points="443.03,-144.3 453.03,-140.8 443.03,-137.3 443.03,-144.3"/>
</g>
</g>
</svg>
